<?xml version="1.0" encoding="utf-8"?>
<!-- Generator: Adobe Illustrator 19.2.1, SVG Export Plug-In . SVG Version: 6.00 Build 0)  -->
<svg version="1.1" id="layer" xmlns="http://www.w3.org/2000/svg" xmlns:xlink="http://www.w3.org/1999/xlink" x="0px" y="0px"
	 viewBox="0 0 652 652" style="enable-background:new 0 0 652 652;" xml:space="preserve">
<style type="text/css">
	.st0{fill:#F5BD31;}
	.st1{fill:#463A1B;}
	.st2{fill-rule:evenodd;clip-rule:evenodd;fill:#463A1B;}
</style>
<g>
	<path class="st0" d="M576.2,326.1c0,138.1-111.9,250-250,250c-138.1,0-250-112-250-250c0-138.1,111.9-250,250-250
		C464.3,76.1,576.2,188.1,576.2,326.1"/>
	<path class="st1" d="M170,390.2c5.2,3.2,9.3,7.7,12.4,13c6.7,11.2,4.2,23.7-7.3,30.6c-11.5,6.9-23.7,3.1-30.4-8.1
		c-3.4-5.7-5.1-11.5-3.9-17l9.4,2c-1,3.5-0.6,6.7,1.8,10.7c4,6.7,11.5,8.3,18.2,4.3c6.7-4,8.9-11.3,4.9-18c-2.1-3.4-4.5-5.4-6.2-6.4
		l-5.8,3.5l3.8,6.4l-7.3,4.3l-8.4-14L170,390.2"/>
	<polygon class="st1" points="125.9,383.7 123.6,374.8 155.8,366.4 151.5,349.9 159.8,347.8 166.4,373.2 	"/>
	<path class="st1" d="M143.4,299.5c9.9,0.2,17,6.4,16.8,18c-0.3,11.6-7.7,17.5-17.6,17.2l-25.7-0.6l0.2-9.2l25.3,0.6
		c5.1,0.1,9.1-3.3,9.2-8.2c0.1-4.8-3.7-8.5-8.8-8.6l-25.3-0.6l0.2-9.2L143.4,299.5"/>
	<polygon class="st1" points="133,265.2 129.4,276.6 121.6,274.1 131.6,242.6 139.3,245 135.8,256.4 167.8,266.5 165.1,275.3 	"/>
	<polygon class="st1" points="142.5,221.7 157.7,197.8 164.9,202.3 154.6,218.5 161.1,222.7 170.9,207.4 178.1,212 168.3,227.3 
		175.5,231.9 186.4,214.8 193.5,219.4 177.7,244.2 	"/>
	<polygon class="st1" points="176.6,174.9 186.2,166.9 218.5,177.9 218.5,177.8 199.9,155.5 207,149.6 233.8,181.7 224.5,189.4 
		191.5,178.2 191.4,178.3 210.5,201.1 203.4,207 	"/>
	<polygon class="st1" points="262.4,123.4 289.6,116.7 291.6,124.9 273.3,129.4 275.4,137.7 292.3,133.5 294.3,141.8 277.4,145.9 
		281.3,161.7 272.3,163.9 	"/>
	<path class="st1" d="M315,112.8l16.2,0.5c8.5,0.3,15.7,3.4,15.4,13.1c-0.2,5.8-3.4,10.3-9.4,11.2l10.1,18l-11-0.3l-8.2-17l-4.5-0.1
		l-0.5,16.7l-9.2-0.3L315,112.8 M323.7,130.3l5.4,0.2c3.4,0.1,7.7,0.1,7.9-4.4c0.1-4.2-3.6-4.9-7-5l-6-0.2L323.7,130.3z"/>
	<polygon class="st1" points="374,120.2 401.1,128.7 398.5,136.9 380.2,131.1 377.9,138.5 395.2,144 392.6,152.1 375.4,146.6 
		372.8,154.7 392.1,160.8 389.6,168.9 361.5,160.1 	"/>
	<polygon class="st1" points="426.6,141.2 450.4,156.7 445.7,163.8 429.7,153.3 425.4,159.9 440.6,169.8 435.9,176.9 420.8,167 
		416.1,174.1 433.1,185.2 428.4,192.3 403.8,176.2 	"/>
	<path class="st1" d="M326.7,542c-57.7,0-111.9-22.5-152.7-63.3l-8.6-8.5l305.4-305.4l8.6,8.5c84.2,84.2,84.1,221.2-0.1,305.4
		C438.6,519.6,384.4,542,326.7,542 M200,470c35,31,79.6,47.9,126.8,47.9c51.2,0,99.4-19.9,135.6-56.2
		c71.9-71.9,74.7-187.2,8.3-262.4L200,470z"/>
	<path class="st1" d="M367,278.6c-2.7,0-4.9-2.2-4.9-4.9v-58.1c0-2.7,2.2-4.9,4.9-4.9c2.7,0,4.9,2.2,4.9,4.9v58.1
		C371.9,276.4,369.7,278.6,367,278.6 M285.6,278.6c-2.7,0-4.9-2.2-4.9-4.9v-58.1c0-2.7,2.2-4.9,4.9-4.9c2.7,0,4.9,2.2,4.9,4.9v58.1
		C290.5,276.4,288.3,278.6,285.6,278.6 M346.6,257.8c-2.7,0-4.9-2.2-4.9-4.9v-58c0-2.7,2.2-4.9,4.9-4.9c2.7,0,4.9,2.2,4.9,4.9v58
		C351.5,255.6,349.3,257.8,346.6,257.8 M305,257.8c-2.7,0-4.9-2.2-4.9-4.9v-58c0-2.7,2.2-4.9,4.9-4.9s4.9,2.2,4.9,4.9v58
		C309.9,255.6,307.7,257.8,305,257.8 M326.2,245.4c-2.7,0-4.9-2.2-4.9-4.9v-58c0-2.7,2.2-4.9,4.9-4.9c2.7,0,4.9,2.2,4.9,4.9v58
		C331.1,243.2,328.9,245.4,326.2,245.4"/>
	<path class="st2" d="M283.8,309.8c-0.3,8.9-2.5,9.1,0,26.6c2.5,17.5,25.9,17.8,42.5,19.6c-0.6-10.3-0.4-27.6-8.5-34.9
		C309.8,313.9,297,316.8,283.8,309.8"/>
	<path class="st2" d="M368.8,309.8c0.3,8.9,2.5,9.1,0,26.6c-2.5,17.5-25.9,17.8-42.5,19.6c0.7-10.3-0.1-26.5,8-33.8
		C342.3,315,355.6,316.8,368.8,309.8"/>
	<path class="st2" d="M326.4,258.8c4.5,2.8,23.3,18.3,26.2,26.9c3,8.5-2.9,24.6-9.2,25.1c-6.3,0.5-16.6,5.5-17.1,7.8
		c-2.3-2.7-14.8-7.1-18.7-7.9c-3.9-0.8-8.8-14.5-8.1-23.3C300.1,278.5,321.2,261.4,326.4,258.8"/>
	<path class="st2" d="M283.8,352.7c-0.3,8.9-2.5,9.1,0,26.6c2.5,17.5,25.9,17.9,42.5,19.6c-0.6-10.3-0.4-27.6-8.5-34.8
		C309.8,356.8,297,359.7,283.8,352.7"/>
	<path class="st2" d="M368.8,352.7c0.3,8.9,2.5,9.1,0,26.6c-2.5,17.5-25.9,17.9-42.5,19.6c0.7-10.3-0.1-26.5,8-33.8
		C342.3,357.9,355.6,359.7,368.8,352.7"/>
	<path class="st2" d="M283.8,395.1c-0.3,8.9-2.5,9.1,0,26.6c2.5,17.5,25.9,17.8,42.5,19.6c-0.6-10.3-0.4-27.6-8.5-34.9
		C309.8,399.2,297,402.1,283.8,395.1"/>
	<path class="st2" d="M368.8,395.1c0.3,8.9,2.5,9.1,0,26.6c-2.5,17.5-25.9,17.8-42.5,19.6c0.7-10.3-0.1-26.5,8-33.8
		C342.3,400.2,355.6,402.1,368.8,395.1"/>
	<path class="st1" d="M326.2,527.1c-2.8,0-5-2.3-5-5v-63.2c0-2.8,2.3-5,5-5c2.8,0,5,2.3,5,5v63.2C331.2,524.9,329,527.1,326.2,527.1
		"/>
	<polygon class="st2" points="326.5,355.9 326.1,355.9 324.2,341.2 328.5,341.2 	"/>
</g>
</svg>
